<svg xmlns="http://www.w3.org/2000/svg" xmlns:xlink="http://www.w3.org/1999/xlink" width="1000" zoomAndPan="magnify" viewBox="0 0 750 749.999995" height="1000" preserveAspectRatio="xMidYMid meet" version="1.0"><defs><filter x="0%" y="0%" width="100%" height="100%" id="9b6b07ae94"><feColorMatrix values="0 0 0 0 1 0 0 0 0 1 0 0 0 0 1 0 0 0 1 0" color-interpolation-filters="sRGB"/></filter><g/><clipPath id="4bb55f8651"><path d="M 750 75 L 750 675 C 750 716.421875 716.421875 750 675 750 L 75 750 C 33.578125 750 0 716.421875 0 675 L 0 75 C 0 33.578125 33.578125 0 75 0 L 675 0 C 716.421875 0 750 33.578125 750 75 Z M 750 75 " clip-rule="nonzero"/></clipPath><clipPath id="b9e8248d71"><path d="M 0 0 L 750 0 L 750 750 L 0 750 Z M 0 0 " clip-rule="nonzero"/></clipPath><clipPath id="9e565aa89b"><path d="M 750 75 L 750 675 C 750 716.421875 716.421875 750 675 750 L 75 750 C 33.578125 750 0 716.421875 0 675 L 0 75 C 0 33.578125 33.578125 0 75 0 L 675 0 C 716.421875 0 750 33.578125 750 75 Z M 750 75 " clip-rule="nonzero"/></clipPath><clipPath id="8973c29c9c"><rect x="0" width="750" y="0" height="750"/></clipPath><mask id="3debfb27a9"><g filter="url(#9b6b07ae94)"><rect x="-75" width="900" fill="#000000" y="-74.999999" height="899.999994" fill-opacity="0.22"/></g></mask><clipPath id="4cbd583356"><path d="M 0.359375 0 L 634.441406 0 L 634.441406 750 L 0.359375 750 Z M 0.359375 0 " clip-rule="nonzero"/></clipPath><clipPath id="211736e840"><path d="M 0.359375 0 L 634.441406 0 L 634.441406 750 L 0.359375 750 Z M 0.359375 0 " clip-rule="nonzero"/></clipPath><clipPath id="51a804e0fb"><path d="M 405.527344 369.105469 L 633.289062 369.105469 L 633.289062 633.742188 L 405.527344 633.742188 Z M 405.527344 369.105469 " clip-rule="nonzero"/></clipPath><clipPath id="eaa7493cba"><path d="M 0.359375 0 L 594 0 L 594 502 L 0.359375 502 Z M 0.359375 0 " clip-rule="nonzero"/></clipPath><clipPath id="73cbb14d01"><path d="M 100.949219 -11.046875 L 594.210938 117.542969 L 494.074219 501.660156 L 0.8125 373.070312 Z M 100.949219 -11.046875 " clip-rule="nonzero"/></clipPath><clipPath id="32b8a28d53"><path d="M 364 97 L 557 97 L 557 265 L 364 265 Z M 364 97 " clip-rule="nonzero"/></clipPath><clipPath id="c732cf873b"><path d="M 100.949219 -11.046875 L 594.210938 117.542969 L 494.074219 501.660156 L 0.8125 373.070312 Z M 100.949219 -11.046875 " clip-rule="nonzero"/></clipPath><clipPath id="f842e431c8"><path d="M 593.867188 117.453125 L 100.605469 -11.136719 L 0.46875 372.980469 L 493.730469 501.570312 Z M 593.867188 117.453125 " clip-rule="nonzero"/></clipPath><clipPath id="0504b3a167"><path d="M 593.867188 117.453125 L 100.605469 -11.136719 L 0.46875 372.980469 L 493.730469 501.570312 Z M 593.867188 117.453125 " clip-rule="nonzero"/></clipPath><clipPath id="3815079bec"><path d="M 593.867188 117.453125 L 100.605469 -11.136719 L 0.46875 372.980469 L 493.730469 501.570312 Z M 593.867188 117.453125 " clip-rule="nonzero"/></clipPath><clipPath id="798ce82385"><path d="M 3 185 L 524 185 L 524 414 L 3 414 Z M 3 185 " clip-rule="nonzero"/></clipPath><clipPath id="7e834497e3"><path d="M 100.949219 -11.046875 L 594.210938 117.542969 L 494.074219 501.660156 L 0.8125 373.070312 Z M 100.949219 -11.046875 " clip-rule="nonzero"/></clipPath><clipPath id="373bde36a6"><path d="M 593.867188 117.453125 L 100.605469 -11.136719 L 0.46875 372.980469 L 493.730469 501.570312 Z M 593.867188 117.453125 " clip-rule="nonzero"/></clipPath><clipPath id="de99231d00"><path d="M 593.867188 117.453125 L 100.605469 -11.136719 L 0.46875 372.980469 L 493.730469 501.570312 Z M 593.867188 117.453125 " clip-rule="nonzero"/></clipPath><clipPath id="7089cbf250"><path d="M 593.867188 117.453125 L 100.605469 -11.136719 L 0.46875 372.980469 L 493.730469 501.570312 Z M 593.867188 117.453125 " clip-rule="nonzero"/></clipPath><clipPath id="4a67c58d33"><rect x="0" width="594" y="0" height="502"/></clipPath><clipPath id="57384045f0"><rect x="0" width="635" y="0" height="750"/></clipPath><clipPath id="08f9b8a3f4"><rect x="0" width="635" y="0" height="750"/></clipPath><clipPath id="d480202f72"><path d="M 0.28125 0 L 633.160156 0 L 633.160156 750 L 0.28125 750 Z M 0.28125 0 " clip-rule="nonzero"/></clipPath><clipPath id="9c6b0850d5"><path d="M 405.039062 358.617188 L 632.796875 358.617188 L 632.796875 623.253906 L 405.039062 623.253906 Z M 405.039062 358.617188 " clip-rule="nonzero"/></clipPath><clipPath id="ecdc5d169d"><path d="M 0.28125 0 L 594 0 L 594 491 L 0.28125 491 Z M 0.28125 0 " clip-rule="nonzero"/></clipPath><clipPath id="789d9b41b1"><path d="M 100.460938 -21.535156 L 593.722656 107.054688 L 493.585938 491.171875 L 0.324219 362.582031 Z M 100.460938 -21.535156 " clip-rule="nonzero"/></clipPath><clipPath id="937b6ddcf1"><path d="M 364 87 L 557 87 L 557 255 L 364 255 Z M 364 87 " clip-rule="nonzero"/></clipPath><clipPath id="8031a57a64"><path d="M 100.460938 -21.535156 L 593.722656 107.054688 L 493.585938 491.171875 L 0.324219 362.582031 Z M 100.460938 -21.535156 " clip-rule="nonzero"/></clipPath><clipPath id="40c11b5a6a"><path d="M 593.378906 106.964844 L 100.117188 -21.625 L -0.0195312 362.492188 L 493.242188 491.082031 Z M 593.378906 106.964844 " clip-rule="nonzero"/></clipPath><clipPath id="7c4b1ca70c"><path d="M 593.378906 106.964844 L 100.117188 -21.625 L -0.0195312 362.492188 L 493.242188 491.082031 Z M 593.378906 106.964844 " clip-rule="nonzero"/></clipPath><clipPath id="c4faa3d1b7"><path d="M 3 174 L 524 174 L 524 404 L 3 404 Z M 3 174 " clip-rule="nonzero"/></clipPath><clipPath id="2116847a4a"><path d="M 100.460938 -21.535156 L 593.722656 107.054688 L 493.585938 491.171875 L 0.324219 362.582031 Z M 100.460938 -21.535156 " clip-rule="nonzero"/></clipPath><clipPath id="5d9576f059"><path d="M 593.378906 106.964844 L 100.117188 -21.625 L -0.0195312 362.492188 L 493.242188 491.082031 Z M 593.378906 106.964844 " clip-rule="nonzero"/></clipPath><clipPath id="17108a7bce"><path d="M 593.378906 106.964844 L 100.117188 -21.625 L -0.0195312 362.492188 L 493.242188 491.082031 Z M 593.378906 106.964844 " clip-rule="nonzero"/></clipPath><clipPath id="4551566285"><rect x="0" width="594" y="0" height="491"/></clipPath><clipPath id="0d01bb0e9c"><rect x="0" width="634" y="0" height="750"/></clipPath><clipPath id="716a3a8da6"><rect x="0" width="120" y="0" height="155"/></clipPath></defs><g clip-path="url(#4bb55f8651)"><g transform="matrix(1, 0, 0, 1, 0, -0.000000000000042435)"><g clip-path="url(#8973c29c9c)"><g clip-path="url(#b9e8248d71)"><g clip-path="url(#9e565aa89b)"><rect x="-165" width="1080" fill="#100557" height="1079.999992" y="-164.999999" fill-opacity="1"/></g></g></g></g></g><g mask="url(#3debfb27a9)"><g transform="matrix(1, 0, 0, 1, 63, -0.000000000000042435)"><g clip-path="url(#08f9b8a3f4)"><g clip-path="url(#4cbd583356)"><g transform="matrix(1, 0, 0, 1, -0.000000000000014211, -0.000000000000042435)"><g clip-path="url(#57384045f0)"><g clip-path="url(#211736e840)"><path stroke-linecap="butt" transform="matrix(-0.173013, 1.070681, -1.070681, -0.173013, 371.309043, 332.834037)" fill="none" stroke-linejoin="miter" d="M 9.32602 55.444615 C 112.646184 22.852913 215.96102 22.853046 319.281194 55.443292 " stroke="#000000" stroke-width="62" stroke-opacity="1" stroke-miterlimit="4"/></g><g clip-path="url(#51a804e0fb)"><path fill="#000000" d="M 627.246094 491.09375 L 423.714844 370.796875 C 420.019531 368.609375 415.433594 368.574219 411.664062 370.714844 C 407.917969 372.855469 405.613281 376.835938 405.613281 381.15625 L 405.613281 621.75 C 405.613281 626.070312 407.917969 630.050781 411.664062 632.191406 C 413.511719 633.25 415.566406 633.78125 417.617188 633.78125 C 419.730469 633.78125 421.84375 633.226562 423.714844 632.109375 L 627.246094 511.808594 C 630.894531 509.65625 633.152344 505.710938 633.152344 501.453125 C 633.152344 497.195312 630.894531 493.25 627.246094 491.09375 Z M 627.246094 491.09375 " fill-opacity="1" fill-rule="nonzero"/></g><g clip-path="url(#eaa7493cba)"><g clip-path="url(#73cbb14d01)"><g transform="matrix(1, 0, 0, 1, -0.000000000000014211, -0.000000000000042435)"><g clip-path="url(#4a67c58d33)"><g clip-path="url(#32b8a28d53)"><g clip-path="url(#c732cf873b)"><g clip-path="url(#f842e431c8)"><g clip-path="url(#0504b3a167)"><g clip-path="url(#3815079bec)"><path fill="#000000" d="M 516.355469 98.226562 L 516.519531 98.277344 C 521.066406 98.867188 524.492188 103.769531 526.796875 112.992188 L 548.738281 216.160156 L 555.140625 244.539062 C 556.578125 251.746094 556.964844 257.332031 556.300781 261.300781 C 554.238281 264.457031 552.117188 265.523438 549.929688 264.507812 C 548.734375 264.085938 547.753906 263.589844 546.992188 263.019531 C 522.261719 245.261719 499.820312 229.773438 479.671875 216.554688 L 448.328125 209.105469 C 416.914062 199.558594 390.832031 192.128906 370.078125 186.8125 C 367.25 186.179688 365.511719 184.828125 364.859375 182.75 C 364.28125 181.347656 366.972656 178.808594 372.9375 175.132812 C 416.382812 148.875 449.609375 129.144531 472.609375 115.9375 C 497 102.179688 511.585938 96.277344 516.355469 98.226562 " fill-opacity="1" fill-rule="nonzero"/></g></g></g></g></g><g clip-path="url(#798ce82385)"><g clip-path="url(#7e834497e3)"><g clip-path="url(#373bde36a6)"><g clip-path="url(#de99231d00)"><g clip-path="url(#7089cbf250)"><path fill="#000000" d="M 523.574219 186.164062 L 503.867188 232.953125 L 480.636719 274.375 L 453.882812 310.421875 L 423.597656 341.097656 L 389.789062 366.40625 L 352.453125 386.339844 L 311.59375 400.902344 L 267.207031 410.097656 L 219.292969 413.917969 C 187.957031 412.433594 167.792969 410.964844 158.796875 409.507812 C 145.246094 409.125 112.898438 401.355469 61.757812 386.199219 C 21.601562 374.496094 2.316406 367.320312 3.902344 364.675781 L 61.085938 372.835938 L 116.03125 373.980469 L 168.734375 368.109375 L 219.199219 355.21875 L 267.425781 335.3125 L 313.410156 308.390625 L 357.15625 274.449219 L 398.664062 233.496094 L 437.929688 185.523438 L 523.574219 186.164062 " fill-opacity="1" fill-rule="nonzero"/></g></g></g></g></g></g></g></g></g></g></g></g></g></g></g><g transform="matrix(1, 0, 0, 1, 53, -0.000000000000042435)"><g clip-path="url(#0d01bb0e9c)"><g clip-path="url(#d480202f72)"><path stroke-linecap="butt" transform="matrix(-0.173013, 1.070681, -1.070681, -0.173013, 374.75545, 321.825619)" fill="none" stroke-linejoin="miter" d="M 10.381168 58.945404 C 113.697202 26.35072 217.015593 26.350279 320.332786 58.944655 " stroke="#478cbf" stroke-width="69" stroke-opacity="1" stroke-miterlimit="4"/></g><g clip-path="url(#9c6b0850d5)"><path fill="#f97316" d="M 627.070312 480.511719 L 423.253906 360.308594 C 419.550781 358.121094 414.957031 358.085938 411.183594 360.222656 C 407.433594 362.363281 405.125 366.34375 405.125 370.65625 L 405.125 611.066406 C 405.125 615.382812 407.433594 619.363281 411.183594 621.5 C 413.035156 622.558594 415.089844 623.089844 417.144531 623.089844 C 419.261719 623.089844 421.378906 622.535156 423.253906 621.417969 L 627.070312 501.210938 C 630.726562 499.0625 632.984375 495.117188 632.984375 490.863281 C 632.984375 486.605469 630.726562 482.664062 627.070312 480.511719 Z M 627.070312 480.511719 " fill-opacity="1" fill-rule="nonzero"/></g><g clip-path="url(#ecdc5d169d)"><g clip-path="url(#789d9b41b1)"><g transform="matrix(1, 0, 0, 1, -0.000000000000014211, -0.000000000000042435)"><g clip-path="url(#4551566285)"><g clip-path="url(#937b6ddcf1)"><g clip-path="url(#8031a57a64)"><g clip-path="url(#40c11b5a6a)"><g clip-path="url(#7c4b1ca70c)"><path fill="#478cbf" d="M 515.921875 87.753906 L 516.082031 87.804688 C 520.628906 88.390625 524.050781 93.292969 526.355469 102.507812 L 548.28125 205.609375 L 554.675781 233.972656 C 556.113281 241.171875 556.5 246.753906 555.835938 250.722656 C 553.777344 253.875 551.65625 254.941406 549.46875 253.925781 C 548.273438 253.503906 547.296875 253.007812 546.535156 252.4375 C 521.820312 234.695312 499.394531 219.214844 479.261719 206.003906 L 447.941406 198.558594 C 416.546875 189.019531 390.484375 181.59375 369.746094 176.28125 C 366.917969 175.652344 365.179688 174.300781 364.53125 172.222656 C 363.949219 170.820312 366.640625 168.285156 372.601562 164.609375 C 416.019531 138.371094 449.21875 118.648438 472.203125 105.453125 C 496.582031 91.703125 511.152344 85.800781 515.921875 87.753906 " fill-opacity="1" fill-rule="nonzero"/></g></g></g></g><g clip-path="url(#c4faa3d1b7)"><g clip-path="url(#2116847a4a)"><g clip-path="url(#5d9576f059)"><g clip-path="url(#17108a7bce)"><path fill="#478cbf" d="M 523.132812 175.632812 L 503.441406 222.394531 L 480.226562 263.785156 L 453.488281 299.8125 L 423.222656 330.46875 L 389.4375 355.757812 L 352.128906 375.683594 L 311.296875 390.238281 L 266.941406 399.421875 L 219.0625 403.242188 C 187.746094 401.761719 167.597656 400.292969 158.605469 398.835938 C 145.0625 398.453125 112.738281 390.691406 61.636719 375.542969 C 21.507812 363.851562 2.234375 356.679688 3.820312 354.039062 L 60.964844 362.191406 L 115.871094 363.332031 L 168.539062 357.464844 L 218.96875 344.582031 L 267.160156 324.6875 L 313.113281 297.78125 L 356.832031 263.863281 L 398.308594 222.933594 L 437.550781 174.992188 L 523.132812 175.632812 " fill-opacity="1" fill-rule="nonzero"/></g></g></g></g></g></g></g></g></g></g><g transform="matrix(1, 0, 0, 1, 467, 417)"><g clip-path="url(#716a3a8da6)"><g fill="#ffffff" fill-opacity="1"><g transform="translate(0.863574, 124.234181)"><g><path d="M 107.15625 -39.109375 C 107.15625 -25.835938 102.960938 -15.71875 94.578125 -8.75 C 86.203125 -1.789062 74.300781 1.6875 58.875 1.6875 C 43.4375 1.6875 31.503906 -1.789062 23.078125 -8.75 C 14.660156 -15.71875 10.453125 -25.835938 10.453125 -39.109375 L 10.453125 -97.125 L 41.640625 -97.125 L 41.640625 -39.53125 C 41.640625 -34.070312 43.097656 -29.71875 46.015625 -26.46875 C 48.929688 -23.21875 53.171875 -21.59375 58.734375 -21.59375 C 64.285156 -21.59375 68.539062 -23.238281 71.5 -26.53125 C 74.46875 -29.832031 75.953125 -34.164062 75.953125 -39.53125 L 75.953125 -97.125 L 107.15625 -97.125 Z M 107.15625 -39.109375 "/></g></g></g></g></g></svg>