<svg xmlns="http://www.w3.org/2000/svg" xmlns:xlink="http://www.w3.org/1999/xlink" width="1000" zoomAndPan="magnify" viewBox="0 0 750 749.999995" height="1000" preserveAspectRatio="xMidYMid meet" version="1.0"><defs><filter x="0%" y="0%" width="100%" height="100%" id="07935e787c"><feColorMatrix values="0 0 0 0 1 0 0 0 0 1 0 0 0 0 1 0 0 0 1 0" color-interpolation-filters="sRGB"/></filter><g/><mask id="84be41c55d"><g filter="url(#07935e787c)"><rect x="-75" width="900" fill="#000000" y="-74.999999" height="899.999994" fill-opacity="0.22"/></g></mask><clipPath id="c60350b971"><path d="M 0.839844 0 L 726.359375 0 L 726.359375 750 L 0.839844 750 Z M 0.839844 0 " clip-rule="nonzero"/></clipPath><clipPath id="271acf8a9a"><path d="M 0.839844 0 L 726.359375 0 L 726.359375 750 L 0.839844 750 Z M 0.839844 0 " clip-rule="nonzero"/></clipPath><clipPath id="7c1215b52a"><path d="M 464.464844 380.390625 L 725 380.390625 L 725 683.164062 L 464.464844 683.164062 Z M 464.464844 380.390625 " clip-rule="nonzero"/></clipPath><clipPath id="f2ad272ef3"><path d="M 1 0 L 681 0 L 681 533 L 1 533 Z M 1 0 " clip-rule="nonzero"/></clipPath><clipPath id="669d8492ba"><path d="M 115.996094 -54.546875 L 680.34375 92.578125 L 565.773438 532.046875 L 1.425781 384.925781 Z M 115.996094 -54.546875 " clip-rule="nonzero"/></clipPath><clipPath id="7a75444391"><path d="M 416 70 L 637 70 L 637 262 L 416 262 Z M 416 70 " clip-rule="nonzero"/></clipPath><clipPath id="23bce4c7ff"><path d="M 114.996094 -54.546875 L 679.34375 92.578125 L 564.773438 532.046875 L 0.425781 384.925781 Z M 114.996094 -54.546875 " clip-rule="nonzero"/></clipPath><clipPath id="0220493684"><path d="M 678.949219 92.472656 L 114.601562 -54.648438 L 0.03125 384.824219 L 564.382812 531.945312 Z M 678.949219 92.472656 " clip-rule="nonzero"/></clipPath><clipPath id="fa9867dc5b"><path d="M 678.949219 92.472656 L 114.601562 -54.648438 L 0.03125 384.824219 L 564.382812 531.945312 Z M 678.949219 92.472656 " clip-rule="nonzero"/></clipPath><clipPath id="607dad9101"><path d="M 678.949219 92.472656 L 114.601562 -54.648438 L 0.03125 384.824219 L 564.382812 531.945312 Z M 678.949219 92.472656 " clip-rule="nonzero"/></clipPath><clipPath id="23404a409f"><path d="M 3 170 L 599 170 L 599 432 L 3 432 Z M 3 170 " clip-rule="nonzero"/></clipPath><clipPath id="c6b15be3a2"><path d="M 114.996094 -54.546875 L 679.34375 92.578125 L 564.773438 532.046875 L 0.425781 384.925781 Z M 114.996094 -54.546875 " clip-rule="nonzero"/></clipPath><clipPath id="ef4e318fd2"><path d="M 678.949219 92.472656 L 114.601562 -54.648438 L 0.03125 384.824219 L 564.382812 531.945312 Z M 678.949219 92.472656 " clip-rule="nonzero"/></clipPath><clipPath id="a8d41b3e9d"><path d="M 678.949219 92.472656 L 114.601562 -54.648438 L 0.03125 384.824219 L 564.382812 531.945312 Z M 678.949219 92.472656 " clip-rule="nonzero"/></clipPath><clipPath id="44da2ccabf"><path d="M 678.949219 92.472656 L 114.601562 -54.648438 L 0.03125 384.824219 L 564.382812 531.945312 Z M 678.949219 92.472656 " clip-rule="nonzero"/></clipPath><clipPath id="531e7bcd79"><rect x="0" width="680" y="0" height="533"/></clipPath><clipPath id="85d7d6b78d"><rect x="0" width="727" y="0" height="750"/></clipPath><clipPath id="98a62bf5c0"><rect x="0" width="727" y="0" height="750"/></clipPath><clipPath id="5d1a70d497"><path d="M 0.558594 0 L 724.398438 0 L 724.398438 750 L 0.558594 750 Z M 0.558594 0 " clip-rule="nonzero"/></clipPath><clipPath id="c9051d28f2"><path d="M 463.464844 368.390625 L 724.050781 368.390625 L 724.050781 671 L 463.464844 671 Z M 463.464844 368.390625 " clip-rule="nonzero"/></clipPath><clipPath id="a3e5b912da"><path d="M 0.558594 0 L 680 0 L 680 520 L 0.558594 520 Z M 0.558594 0 " clip-rule="nonzero"/></clipPath><clipPath id="859eb2f529"><path d="M 114.996094 -66.546875 L 679.34375 80.578125 L 564.773438 520.046875 L 0.425781 372.925781 Z M 114.996094 -66.546875 " clip-rule="nonzero"/></clipPath><clipPath id="649baa2e8d"><path d="M 417 58 L 637 58 L 637 250 L 417 250 Z M 417 58 " clip-rule="nonzero"/></clipPath><clipPath id="0a29d22fc0"><path d="M 114.996094 -66.546875 L 679.34375 80.578125 L 564.773438 520.046875 L 0.425781 372.925781 Z M 114.996094 -66.546875 " clip-rule="nonzero"/></clipPath><clipPath id="9da369d2a1"><path d="M 678.949219 80.472656 L 114.601562 -66.648438 L 0.03125 372.824219 L 564.382812 519.945312 Z M 678.949219 80.472656 " clip-rule="nonzero"/></clipPath><clipPath id="ee426e7f84"><path d="M 678.949219 80.472656 L 114.601562 -66.648438 L 0.03125 372.824219 L 564.382812 519.945312 Z M 678.949219 80.472656 " clip-rule="nonzero"/></clipPath><clipPath id="084f9eef23"><path d="M 4 158 L 599 158 L 599 420 L 4 420 Z M 4 158 " clip-rule="nonzero"/></clipPath><clipPath id="4b9d311080"><path d="M 114.996094 -66.546875 L 679.34375 80.578125 L 564.773438 520.046875 L 0.425781 372.925781 Z M 114.996094 -66.546875 " clip-rule="nonzero"/></clipPath><clipPath id="54ead63fee"><path d="M 678.949219 80.472656 L 114.601562 -66.648438 L 0.03125 372.824219 L 564.382812 519.945312 Z M 678.949219 80.472656 " clip-rule="nonzero"/></clipPath><clipPath id="081ee78fc4"><path d="M 678.949219 80.472656 L 114.601562 -66.648438 L 0.03125 372.824219 L 564.382812 519.945312 Z M 678.949219 80.472656 " clip-rule="nonzero"/></clipPath><clipPath id="1c07f193b7"><rect x="0" width="680" y="0" height="520"/></clipPath><clipPath id="caa6649d7b"><rect x="0" width="725" y="0" height="750"/></clipPath></defs><g mask="url(#84be41c55d)"><g transform="matrix(1, 0, 0, 1, 21, -0.000000000000042435)"><g clip-path="url(#98a62bf5c0)"><g clip-path="url(#c60350b971)"><g transform="matrix(1, 0, 0, 1, -0.000000000000003553, -0.000000000000042435)"><g clip-path="url(#85d7d6b78d)"><g clip-path="url(#271acf8a9a)"><path stroke-linecap="butt" transform="matrix(-0.197947, 1.224982, -1.224982, -0.197947, 425.316533, 338.892543)" fill="none" stroke-linejoin="miter" d="M 9.327833 55.445165 C 112.643418 22.850724 215.961469 22.852026 319.281485 55.445962 " stroke="#000000" stroke-width="62" stroke-opacity="1" stroke-miterlimit="4"/></g><g clip-path="url(#7c1215b52a)"><path fill="#000000" d="M 718.140625 519.960938 L 485.277344 382.328125 C 481.046875 379.824219 475.800781 379.78125 471.488281 382.230469 C 467.203125 384.679688 464.566406 389.238281 464.566406 394.179688 L 464.566406 669.445312 C 464.566406 674.386719 467.203125 678.941406 471.488281 681.390625 C 473.601562 682.605469 475.949219 683.210938 478.300781 683.210938 C 480.714844 683.210938 483.132812 682.578125 485.277344 681.296875 L 718.140625 543.664062 C 722.3125 541.199219 724.894531 536.683594 724.894531 531.8125 C 724.894531 526.941406 722.3125 522.425781 718.140625 519.960938 Z M 718.140625 519.960938 " fill-opacity="1" fill-rule="nonzero"/></g><g clip-path="url(#f2ad272ef3)"><g clip-path="url(#669d8492ba)"><g transform="matrix(1, 0, 0, 1, 1, -0.000000000000042435)"><g clip-path="url(#531e7bcd79)"><g clip-path="url(#7a75444391)"><g clip-path="url(#23bce4c7ff)"><g clip-path="url(#0220493684)"><g clip-path="url(#fa9867dc5b)"><g clip-path="url(#607dad9101)"><path fill="#000000" d="M 590.269531 70.476562 L 590.453125 70.535156 C 595.65625 71.207031 599.574219 76.816406 602.210938 87.367188 L 627.316406 205.40625 L 634.640625 237.875 C 636.285156 246.121094 636.730469 252.511719 635.96875 257.050781 C 633.609375 260.660156 631.179688 261.882812 628.679688 260.71875 C 627.308594 260.238281 626.1875 259.671875 625.316406 259.019531 C 597.023438 238.703125 571.347656 220.980469 548.296875 205.855469 L 512.433594 197.332031 C 476.496094 186.410156 446.652344 177.910156 422.910156 171.824219 C 419.671875 171.105469 417.683594 169.554688 416.9375 167.179688 C 416.277344 165.574219 419.355469 162.671875 426.179688 158.464844 C 475.886719 128.421875 513.898438 105.847656 540.214844 90.738281 C 568.121094 74.996094 584.808594 68.242188 590.269531 70.476562 " fill-opacity="1" fill-rule="nonzero"/></g></g></g></g></g><g clip-path="url(#23404a409f)"><g clip-path="url(#c6b15be3a2)"><g clip-path="url(#ef4e318fd2)"><g clip-path="url(#a8d41b3e9d)"><g clip-path="url(#44da2ccabf)"><path fill="#000000" d="M 598.523438 171.085938 L 575.980469 224.621094 L 549.402344 272.007812 L 518.789062 313.25 L 484.140625 348.347656 L 445.460938 377.300781 L 402.746094 400.109375 L 355.992188 416.773438 L 305.210938 427.289062 L 250.394531 431.660156 C 214.542969 429.964844 191.46875 428.28125 181.179688 426.617188 C 165.671875 426.175781 128.664062 417.289062 70.15625 399.949219 C 24.210938 386.558594 2.144531 378.351562 3.960938 375.324219 L 69.386719 384.660156 L 132.246094 385.96875 L 192.546875 379.25 L 250.285156 364.503906 L 305.460938 341.726562 L 358.074219 310.925781 L 408.125 272.09375 L 455.613281 225.238281 L 500.539062 170.351562 L 598.523438 171.085938 " fill-opacity="1" fill-rule="nonzero"/></g></g></g></g></g></g></g></g></g></g></g></g></g></g></g><g transform="matrix(1, 0, 0, 1, 10, -0.000000000000042435)"><g clip-path="url(#caa6649d7b)"><g clip-path="url(#5d1a70d497)"><path stroke-linecap="butt" transform="matrix(-0.197947, 1.224982, -1.224982, -0.197947, 428.818501, 326.297642)" fill="none" stroke-linejoin="miter" d="M 10.378871 58.944079 C 113.698066 26.352243 217.015615 26.350437 320.332522 58.944875 " stroke="#478cbf" stroke-width="69" stroke-opacity="1" stroke-miterlimit="4"/></g><g clip-path="url(#c9051d28f2)"><path fill="#f97316" d="M 717.496094 507.855469 L 484.304688 370.324219 C 480.070312 367.824219 474.816406 367.78125 470.496094 370.230469 C 466.207031 372.675781 463.566406 377.230469 463.566406 382.167969 L 463.566406 657.222656 C 463.566406 662.160156 466.207031 666.714844 470.496094 669.160156 C 472.613281 670.371094 474.964844 670.976562 477.320312 670.976562 C 479.738281 670.976562 482.160156 670.34375 484.304688 669.066406 L 717.496094 531.535156 C 721.679688 529.074219 724.265625 524.5625 724.265625 519.695312 C 724.265625 514.828125 721.679688 510.316406 717.496094 507.855469 Z M 717.496094 507.855469 " fill-opacity="1" fill-rule="nonzero"/></g><g clip-path="url(#a3e5b912da)"><g clip-path="url(#859eb2f529)"><g transform="matrix(1, 0, 0, 1, -0.000000000000001776, -0.000000000000042435)"><g clip-path="url(#1c07f193b7)"><g clip-path="url(#649baa2e8d)"><g clip-path="url(#0a29d22fc0)"><g clip-path="url(#9da369d2a1)"><g clip-path="url(#ee426e7f84)"><path fill="#478cbf" d="M 590.328125 58.492188 L 590.511719 58.550781 C 595.714844 59.222656 599.628906 64.828125 602.265625 75.371094 L 627.351562 193.332031 L 634.667969 225.78125 C 636.3125 234.019531 636.757812 240.410156 635.996094 244.945312 C 633.640625 248.550781 631.210938 249.773438 628.710938 248.613281 C 627.34375 248.128906 626.222656 247.5625 625.351562 246.910156 C 597.078125 226.609375 571.421875 208.898438 548.386719 193.785156 L 512.550781 185.265625 C 476.632812 174.355469 446.8125 165.859375 423.085938 159.777344 C 419.851562 159.058594 417.863281 157.511719 417.121094 155.132812 C 416.457031 153.53125 419.535156 150.628906 426.355469 146.425781 C 476.027344 116.402344 514.015625 93.839844 540.3125 78.742188 C 568.199219 63.011719 584.871094 56.261719 590.328125 58.492188 " fill-opacity="1" fill-rule="nonzero"/></g></g></g></g><g clip-path="url(#084f9eef23)"><g clip-path="url(#4b9d311080)"><g clip-path="url(#54ead63fee)"><g clip-path="url(#081ee78fc4)"><path fill="#478cbf" d="M 598.578125 159.035156 L 576.050781 212.535156 L 549.488281 259.894531 L 518.894531 301.109375 L 484.273438 336.1875 L 445.617188 365.121094 L 402.929688 387.914062 L 356.214844 404.566406 L 305.464844 415.078125 L 250.6875 419.449219 C 214.859375 417.753906 191.804688 416.074219 181.519531 414.40625 C 166.023438 413.96875 129.042969 405.085938 70.574219 387.757812 C 24.660156 374.378906 2.613281 366.175781 4.421875 363.152344 L 69.804688 372.480469 L 132.625 373.789062 L 192.882812 367.070312 L 250.578125 352.332031 L 305.714844 329.574219 L 358.292969 298.789062 L 408.308594 259.984375 L 455.765625 213.15625 L 500.660156 158.304688 L 598.578125 159.035156 " fill-opacity="1" fill-rule="nonzero"/></g></g></g></g></g></g></g></g></g></g><g fill="#ffffff" fill-opacity="1"><g transform="translate(484.706787, 577.326256)"><g><path d="M 122.59375 -44.734375 C 122.59375 -29.554688 117.800781 -17.984375 108.21875 -10.015625 C 98.632812 -2.046875 85.015625 1.9375 67.359375 1.9375 C 49.691406 1.9375 36.039062 -2.046875 26.40625 -10.015625 C 16.769531 -17.984375 11.953125 -29.554688 11.953125 -44.734375 L 11.953125 -111.125 L 47.640625 -111.125 L 47.640625 -45.21875 C 47.640625 -38.976562 49.304688 -34 52.640625 -30.28125 C 55.984375 -26.570312 60.832031 -24.71875 67.1875 -24.71875 C 73.539062 -24.71875 78.410156 -26.597656 81.796875 -30.359375 C 85.191406 -34.128906 86.890625 -39.082031 86.890625 -45.21875 L 86.890625 -111.125 L 122.59375 -111.125 Z M 122.59375 -44.734375 "/></g></g></g></svg>